<svg width="147" height="23" viewBox="0 0 147 23" fill="none" xmlns="http://www.w3.org/2000/svg">
<path fill-rule="evenodd" clip-rule="evenodd" d="M16.2881 11.8387C16.7206 12.4805 21.092 16.709 21.7444 17.3572L26.5331 22.1151C26.7409 22.3216 27.0141 22.7031 27.2986 22.7787C27.3831 22.4644 30.1251 19.8732 30.4097 19.5906L38.3581 11.6931C39.155 10.9013 39.6774 10.6874 39.6774 9.5731C39.6774 8.71912 38.8733 8.01947 37.788 8.01947C37.2974 8.01947 34.4497 7.94844 34.1755 8.11984C33.9571 8.25625 33.7451 9.74365 31.8744 11.2711C30.5536 12.3625 28.8862 12.9536 27.1684 12.9392C25.4505 12.9392 23.6412 12.2021 22.7233 11.4002C22.1693 10.9605 21.6711 10.4556 21.2397 9.89653C20.5072 8.86819 20.6089 8.68008 20.3412 8.20008C20.2179 7.97903 20.4292 8.01947 19.5456 8.01947C19.3378 8.01947 19.1156 8.67743 18.8941 9.11996C18.3099 10.2587 17.4043 11.2035 16.2881 11.8387Z" fill="#888"/>
<path fill-rule="evenodd" clip-rule="evenodd" d="M0 9.5724C0 10.623 0.321651 10.7011 1.25415 11.6276L11.6132 21.9202C11.8377 22.1433 12.2981 22.4778 12.3788 22.778C12.6498 22.706 13.5692 21.6922 13.8284 21.4347C14.3952 20.8716 17.9139 17.4403 18.1121 17.1461C17.9239 16.867 14.8317 13.855 14.3171 13.3431C13.4912 12.5216 13.8116 12.9385 12.4439 12.9385C10.6024 12.9385 9.34035 12.334 7.98651 11.4118C7.57152 11.0943 7.19272 10.7327 6.85686 10.3333C6.48717 9.92632 6.18154 9.46611 5.95034 8.9683C5.31767 7.71924 6.20035 8.01878 2.21513 8.01878C1.60311 8.01878 1.09827 8.05092 0.667218 8.35808C0.265341 8.63639 0.0182877 9.08602 0 9.5724H0Z" fill="#888"/>
<path fill-rule="evenodd" clip-rule="evenodd" d="M118.315 10.4143C120.109 10.4143 121.051 11.7548 121.051 13.3273H115.514C115.599 12.5902 115.886 11.8905 116.344 11.3041C116.847 10.7471 117.562 10.4245 118.315 10.4143ZM112.321 14.5573C112.285 15.6596 112.461 16.7586 112.841 17.7948C113.274 18.9104 114.058 19.857 115.077 20.4933C115.438 20.7152 115.822 20.8981 116.222 21.039C117.852 21.6224 119.673 21.5728 121.394 21.2417C122.774 20.9765 122.886 20.7951 123.267 20.707C123.254 20.1297 122.89 18.9087 122.876 18.2471C122.481 18.2558 118.85 19.6656 116.759 18.1099C115.97 17.5403 115.506 16.627 115.514 15.6577H123.853C124.123 15.6577 124.113 15.0386 124.113 14.622C124.113 12.7131 123.822 10.7949 122.502 9.42582C121.498 8.38326 120.007 7.73879 117.958 7.86542C117.528 7.87846 117.102 7.95464 116.694 8.09148C115.584 8.40923 114.597 9.05423 113.864 9.94117C112.772 11.2296 112.321 12.7847 112.321 14.5573Z" fill="#888"/>
<path fill-rule="evenodd" clip-rule="evenodd" d="M62.741 17.1468C62.741 15.005 65.8932 15.2672 67.3015 15.5932L67.3016 18.7005C67.2519 18.9297 67.1272 18.9593 66.5198 18.9593C64.9863 18.9593 62.741 19.2811 62.741 17.1468ZM61.3076 10.9324C62.3819 10.6837 63.1533 10.4145 64.4349 10.4145C66.12 10.4145 67.3015 11.0837 67.3015 12.7449V13.3923C66.939 13.3634 66.5789 13.3103 66.2236 13.2333C64.1082 12.9211 61.2585 13.3612 60.1208 15.3203C59.3117 16.7134 59.566 19.3506 61.111 20.4493C63.0994 21.8632 66.9294 21.4587 69.2942 21.0686C69.6305 21.0132 70.2985 20.9599 70.2985 20.6424V13.198C70.2985 9.80571 68.8005 7.8252 65.0212 7.8252C64.45 7.8252 62.3102 8.01691 61.9888 8.17838C61.7525 8.29701 61.5331 9.84242 61.4653 10.1828C61.3995 10.4298 61.3469 10.68 61.3076 10.9324H61.3076Z" fill="#888"/>
<path fill-rule="evenodd" clip-rule="evenodd" d="M97.401 17.4057C97.401 16.7161 97.4784 16.1544 98.2078 15.7477C98.933 15.3432 101.201 15.2618 101.896 15.5933V18.8946C100.938 18.8946 98.7846 19.306 97.9036 18.46C97.5898 18.1979 97.4063 17.8131 97.401 17.4057ZM96.4889 8.21369L95.9494 10.9288C96.2158 10.875 96.422 10.7967 96.6889 10.7428C98.5965 10.3576 101.896 9.76719 101.896 12.745V13.3923C100.918 13.3707 100.213 12.8281 97.6996 13.3654C96.0241 13.7234 94.3389 14.9126 94.3389 16.888C94.3389 18.3586 94.5276 19.5342 95.7992 20.4862C97.4652 21.7336 100.571 21.4616 102.619 21.2306C103.037 21.1833 103.328 21.1339 103.758 21.0683C103.958 21.0379 104.158 21.0026 104.318 20.9765C104.512 20.9396 104.704 20.8929 104.893 20.8366C104.893 19.2177 104.98 12.8249 104.832 11.7699C104.66 10.5388 104.094 9.37149 103.253 8.80775C101.314 7.50714 98.6522 7.7129 96.4889 8.21369Z" fill="#888"/>
<path fill-rule="evenodd" clip-rule="evenodd" d="M125.938 8.79585V21.1598H128.869C129.188 21.1598 129.065 20.499 129.065 19.8652L129.064 11.3192C129.054 10.6088 128.898 10.5437 131.215 10.5437C134.284 10.5437 133.821 13.7759 133.821 16.6286C133.821 16.8881 133.823 17.1483 133.823 17.4076C133.823 17.7633 133.771 17.824 133.755 18.1171C133.696 19.2061 133.821 20.2538 133.821 21.1598H136.883C136.883 20.9742 136.873 20.7589 136.883 20.577C136.918 19.9243 137.005 20.5149 136.892 19.5322C136.877 19.3199 136.874 19.1069 136.883 18.8943C136.887 17.0576 136.971 13.2743 136.706 11.8851C136.096 8.6982 133.945 7.88965 131.019 7.88965C130.633 7.88965 125.938 8.17849 125.938 8.79585Z" fill="#888"/>
<path fill-rule="evenodd" clip-rule="evenodd" d="M72.1879 8.60203C72.1879 12.4656 72.239 16.6619 72.1867 20.5141C72.1749 21.3836 71.8301 21.1602 75.25 21.1602V10.8677C75.25 10.5682 75.8791 10.6198 76.2937 10.6101C76.6073 10.6026 76.5903 10.5592 76.8785 10.5437C78.0557 10.4806 79.1498 10.5815 79.6813 11.7729C80.2579 13.0651 80.0712 17.5529 80.0712 19.2183C80.0712 19.558 80.0159 19.7042 80.0092 19.934L80.0712 21.1602H82.9378C83.088 21.1602 83.1333 21.1152 83.1333 20.9661V13.6513C83.1333 6.69973 77.016 7.48439 72.1879 8.60203Z" fill="#888"/>
<path fill-rule="evenodd" clip-rule="evenodd" d="M83.3281 6.53044C83.3281 6.67964 83.3735 6.72465 83.5236 6.72465H88.3448V20.9659C88.3448 21.115 88.3902 21.16 88.5402 21.16H91.4069C91.557 21.16 91.6023 21.115 91.6023 20.9659V6.72465H96.4236C96.7347 6.72465 96.6191 6.29123 96.6191 5.49473C96.6191 4.90604 96.5539 4.58358 96.5539 4.00586H83.3281V6.53044Z" fill="#888"/>
<path fill-rule="evenodd" clip-rule="evenodd" d="M7.49219 5.55943C7.49219 10.7226 14.4708 12.5795 16.9183 7.73962C17.5729 6.38751 17.5648 4.81125 16.8962 3.46588C14.5033 -1.26749 7.49219 0.582589 7.49219 5.55943Z" fill="#888"/>
<path fill-rule="evenodd" clip-rule="evenodd" d="M22.2822 5.23549C22.2822 6.90275 22.5906 7.96639 23.797 9.16801C25.705 11.0688 28.8433 10.9857 30.7692 9.07197C31.6478 8.13216 32.1513 6.9062 32.1852 5.62393C32.1852 1.10256 26.6201 -0.755813 23.8292 2.04708C23.0256 2.85424 22.2822 3.97416 22.2822 5.23549Z" fill="#888"/>
<path fill-rule="evenodd" clip-rule="evenodd" d="M138.642 5.10623C138.642 6.78643 138.554 14.4654 138.697 15.7319C138.841 17.0018 138.464 19.0656 140.159 20.494C141.008 21.2092 142.235 21.4411 143.335 21.4867L145.218 21.2855C145.845 21.1581 146.267 20.9068 146.851 20.7716C146.851 20.064 146.407 18.8641 146.395 18.3118C145.566 18.5035 143.976 19.2022 142.726 18.5908C141.736 18.1063 141.704 16.511 141.704 15.3988V10.738H146.33V8.14865H141.704V4.26465L139.179 4.66933C138.862 4.71779 138.642 4.68884 138.642 5.10623Z" fill="#888"/>
<path fill-rule="evenodd" clip-rule="evenodd" d="M106.718 2.45244C106.718 2.97822 106.604 3.55954 106.657 4.19682C106.82 6.15809 106.718 11.2683 106.718 13.4571C106.718 15.0634 106.563 16.6835 106.763 18.1378C106.957 19.5385 107.337 20.4647 108.811 21.0228C109.482 21.2766 110.014 21.3189 110.894 21.3563C111.47 21.3807 111.303 21.6533 111.623 19.7546C111.866 18.3118 111.657 19.1284 110.565 18.5686C109.997 18.2776 109.78 17.7426 109.78 16.888V1.93457C109.265 1.97963 108.752 2.0537 108.245 2.15643C107.69 2.2485 107.213 2.33793 106.718 2.45244Z" fill="#888"/>
<rect x="46.7783" y="4.00586" width="3.19249" height="17.1542" fill="#888"/>
<path fill-rule="evenodd" clip-rule="evenodd" d="M51.9912 8.92488V21.1594H55.0533V10.8022C56.9392 10.3657 57.5893 10.4932 59.4836 10.9317L60.0048 8.34232C59.5139 8.19855 59.0132 8.09032 58.5066 8.01845C56.6889 7.82079 55.9946 7.83867 54.1895 8.19621L52.4872 8.64105C52.2443 8.71537 51.9912 8.69508 51.9912 8.92488Z" fill="#888"/>
</svg>
