<svg width="23" height="34" viewBox="0 0 23 34" fill="none" xmlns="http://www.w3.org/2000/svg">
    <path d="M21.4771 29.4056V32.0431C21.4771 32.3404 21.2366 32.5809 20.9393 32.5809H1.32171C1.02496 32.5809 0.783936 32.3404 0.783936 32.0431V29.4056C0.783936 26.6385 3.02793 24.3964 5.79553 24.3959C6.77331 24.395 7.63522 23.8924 8.13095 23.1287C8.62913 22.3631 8.5778 21.6978 8.5778 21.1595L8.58758 21.135C6.17589 20.1362 4.47945 17.7602 4.47945 14.9873V14.777C3.52171 14.777 2.79962 14.0202 2.79962 13.1285V10.3365C2.77811 9.36407 2.8226 5.93549 5.29931 3.54873C8.17887 0.77331 12.7412 1.00015 16.047 2.48491C16.1546 2.5338 16.1512 2.68731 16.0422 2.73229L15.1807 3.08722C15.0517 3.14002 15.079 3.3302 15.2174 3.34487L15.6359 3.39033C17.8882 3.63087 19.7621 4.97482 20.6959 6.56811C20.7052 6.58327 20.7022 6.60331 20.6895 6.617C19.9449 7.37624 19.5284 8.39802 19.5284 9.46233V13.0312C19.5284 13.9938 18.7486 14.777 17.7816 14.777V14.9873C17.7816 17.7602 16.0852 20.1362 13.6735 21.1346L13.6833 21.1595C13.6833 21.6826 13.628 22.3573 14.1306 23.1287C14.6263 23.8919 15.4878 24.395 16.4655 24.3959C19.2336 24.3964 21.4766 26.6385 21.4766 29.4056H21.4771Z" fill="#D1E7FF"/>
    <path d="M20.6947 6.56761C20.7039 6.58325 20.701 6.6033 20.6878 6.6165C19.9442 7.37623 19.5272 8.3985 19.5272 9.46183V13.0307C19.5272 13.9938 18.7474 14.777 17.7804 14.777C17.7804 12.7442 17.7819 11.6819 17.7814 11.1104C17.7814 10.7501 17.4328 10.4909 17.0881 10.597C16.0052 10.93 14.7415 11.1016 13.4136 10.8131C11.0768 10.3052 10.4153 9.38948 8.50911 8.93188C6.37951 8.42147 4.44791 10.0529 4.46111 12.1395C4.46551 12.8254 4.47675 13.6829 4.47822 14.777C3.52049 14.777 2.79889 14.0202 2.79889 13.1285V10.3365C2.77738 9.36405 2.82138 5.93547 5.29809 3.54872C8.17715 0.773293 12.7409 1.00063 16.0458 2.48489C16.1534 2.53329 16.1504 2.68729 16.0409 2.73178L15.1795 3.08672C15.0504 3.14001 15.0773 3.32969 15.2162 3.34485L15.6347 3.38983C17.887 3.63036 19.7609 4.97383 20.6947 6.56761V6.56761Z" fill="#B9DCFF"/>
    <path d="M17.0885 10.5971C17.4332 10.491 17.7813 10.7496 17.7818 11.1104C17.7818 11.701 17.7808 12.8176 17.7808 14.9873C17.7808 17.7603 16.0843 20.1363 13.6726 21.1346C9.31127 22.9449 4.4786 19.729 4.4786 14.9873C4.4786 13.7612 4.46638 12.89 4.46149 12.1395C4.44829 10.0529 6.37989 8.42152 8.50949 8.93241C10.4157 9.38952 11.0771 10.3052 13.414 10.8132C14.7418 11.1016 16.0051 10.9305 17.0885 10.5971V10.5971Z" fill="#D1E7FF"/>
    <path d="M21.4771 29.4056V32.0432C21.4771 32.3404 21.2361 32.5809 20.9393 32.5809H1.32171C1.02496 32.5809 0.783936 32.3404 0.783936 32.0432V29.4056C0.783936 26.6385 3.02793 24.397 5.79504 24.396C6.7738 24.396 7.63522 23.8919 8.13095 23.1288C9.86113 24.6072 12.399 24.6077 14.1306 23.1288C14.6258 23.8914 15.4878 24.3955 16.466 24.396C19.2331 24.397 21.4771 26.6385 21.4771 29.4056V29.4056Z" fill="#B9DCFF"/>
    <path d="M8.50251 26.0186C8.25416 26.0968 7.98771 26.1398 7.7022 26.1423C4.92776 26.1667 2.66567 28.3609 2.66567 31.1353V31.6403C2.66567 32.1595 2.24425 32.5809 1.72505 32.5809H1.32171C1.02496 32.5809 0.783936 32.3404 0.783936 32.0432V29.4056C0.783936 26.6385 3.02794 24.397 5.79505 24.396C6.7738 24.396 7.63522 23.8919 8.13096 23.1288C8.33091 23.2999 8.54456 23.4529 8.76993 23.5874C9.76091 24.1779 9.603 25.673 8.50251 26.0186V26.0186Z" fill="#D1E7FF"/>
    <path d="M13.7574 26.0186C14.0062 26.0968 14.2727 26.1398 14.5582 26.1423C17.3326 26.1667 19.5947 28.3609 19.5947 31.1353V31.6403C19.5947 32.1595 20.0157 32.5809 20.5354 32.5809H20.9382C21.235 32.5809 21.476 32.3404 21.476 32.0432V29.4056C21.476 26.6385 19.232 24.397 16.4649 24.396C15.4866 24.396 14.6252 23.8919 14.1294 23.1288C13.929 23.2999 13.7153 23.4529 13.49 23.5874C12.499 24.1779 12.6569 25.673 13.7574 26.0186V26.0186Z" fill="#A2D0FF"/>
    <path d="M13.7592 22.2629C12.1038 22.9557 10.2852 23.0095 8.50122 22.2629C8.59264 21.885 8.57749 21.6401 8.57749 21.1595L8.58726 21.1351C10.2055 21.8063 12.052 21.8078 13.6732 21.1351L13.6829 21.1595C13.6829 21.6401 13.6683 21.885 13.7592 22.2629V22.2629Z" fill="#B9DCFF"/>
    <path d="M16.0414 2.73229C15.4078 2.99286 15.2675 3.08429 14.9766 3.03686C9.64577 2.15931 5.44817 4.94646 4.87372 10.3932C4.86395 10.489 4.8395 10.5829 4.79697 10.6689C4.38826 11.5015 4.46061 12.117 4.46941 13.1412C4.4787 14.2187 2.8551 14.2877 2.80084 13.2116C2.79741 13.1446 2.79839 13.3216 2.79839 10.3365C2.77688 9.36406 2.82137 5.93548 5.29808 3.54873C8.17764 0.773311 12.7399 1.00016 16.0458 2.48491C16.1534 2.5338 16.1499 2.68731 16.0409 2.73229H16.0414Z" fill="#D1E7FF"/>
    <path d="M9.62464 19.2831C10.7178 19.9666 9.85491 21.6444 8.6586 21.1638C6.20096 20.1778 4.47861 17.7817 4.47861 14.9872C4.47861 13.7601 4.46639 12.8928 4.46199 12.1394C4.45759 11.4648 4.65656 10.838 4.99976 10.3159C5.43047 9.65931 6.47131 9.94531 6.47718 10.796C6.48207 11.5518 6.49429 12.4147 6.49429 13.6438C6.49429 16.0955 7.783 18.1318 9.62464 19.2831Z" fill="#E8F3FF"/>
    <path d="M22.0139 29.4061V32.5809C22.0139 32.8777 21.7733 33.1187 21.4761 33.1187C21.1798 33.1187 20.9388 32.8777 20.9388 32.5809V29.4061C20.9388 26.9337 18.9388 24.9332 16.4664 24.9332C15.2965 24.9332 14.2352 24.3377 13.6275 23.3394C13.473 23.0857 13.5532 22.7552 13.8069 22.6007C14.0601 22.4462 14.3906 22.5264 14.5451 22.7802C14.9568 23.4553 15.6744 23.8586 16.4664 23.8586C19.5323 23.8586 22.0139 26.3397 22.0139 29.4061V29.4061ZM11.9951 23.6078C10.8701 23.8528 9.72809 23.6039 8.82218 22.9821C8.97716 22.6379 9.07298 22.2683 9.10329 21.8845C13.7101 23.2407 18.3188 19.7637 18.3188 14.9873C18.3188 10.4289 18.3242 10.5017 18.3056 10.3145C18.2352 9.5738 17.1646 9.67451 17.236 10.4201C17.2482 10.5423 17.2438 10.6484 17.2438 14.9873C17.2438 18.3586 14.5011 21.1008 11.1302 21.1008C7.75885 21.1008 5.01618 18.3582 5.01618 14.9873C5.01618 13.7768 5.00347 12.8391 4.99907 12.1361C4.98831 10.3722 6.61974 9.03162 8.38462 9.45451C10.874 10.0514 11.8772 11.6046 15.0682 11.456C15.3645 11.4418 15.5938 11.1901 15.5801 10.8938C15.5659 10.597 15.3161 10.3697 15.0179 10.3819C12.1412 10.5174 11.3439 9.059 8.63543 8.40927C6.18609 7.82211 3.90934 9.68527 3.92449 12.1424C3.92791 12.7144 3.93525 13.3402 3.93916 14.1107C3.58129 13.9239 3.33685 13.5543 3.33685 13.128V10.3242C3.30947 9.10642 3.48352 6.045 5.67129 3.93545C8.11623 1.579 11.9418 1.57802 14.9162 2.61496L14.486 2.79145C13.9731 3.00265 14.0802 3.76385 14.6336 3.823L15.5781 3.9242C17.3968 4.11878 19.0048 5.06722 20.0348 6.54025C19.3587 7.36158 18.9906 8.38482 18.9906 9.46233V13.1285C18.9906 13.4253 19.2311 13.6658 19.5284 13.6658C19.8246 13.6658 20.0656 13.4253 20.0656 13.128V9.46233C20.0656 8.52807 20.426 7.64758 21.0811 6.98367C21.2634 6.79838 21.2859 6.50016 21.1588 6.29531C20.0872 4.57687 18.4924 3.47002 16.6728 3.02611C16.9671 2.77531 16.9094 2.30842 16.5686 2.13634C15.0061 1.34727 12.7773 0.79287 10.656 0.875003C5.28996 1.08229 2.14885 5.08971 2.26178 10.3418V13.128C2.26178 14.1562 2.98143 15.02 3.94698 15.2522C4.0472 17.9978 5.69378 20.3548 8.03947 21.4768V21.6181C8.03947 22.8574 7.03578 23.8581 5.794 23.8581C2.72134 23.8581 0.246582 26.3451 0.246582 29.4056V32.5804C0.246582 32.8772 0.487115 33.1182 0.783871 33.1182C1.08063 33.1182 1.32165 32.8772 1.32165 32.5804V29.4056C1.32165 26.9337 3.32169 24.9332 5.794 24.9332C6.7092 24.9332 7.58089 24.5665 8.22525 23.8753C9.3712 24.6575 10.81 24.9655 12.2244 24.6575C12.5138 24.5939 12.6981 24.3079 12.635 24.018C12.5715 23.7276 12.285 23.5438 11.9951 23.6073V23.6078ZM16.572 30.3638H14.9597C14.6629 30.3638 14.4219 30.6043 14.4219 30.9016C14.4219 31.1978 14.6629 31.4389 14.9597 31.4389H16.572C16.8688 31.4389 17.1098 31.1978 17.1098 30.9011C17.1098 30.6043 16.8688 30.3633 16.572 30.3633V30.3638Z" fill="#2E58FF"/>
</svg>
